
        <svg xmlns="http://www.w3.org/2000/svg" xmlns:xlink="http://www.w3.org/1999/xlink" version="1.1" width="2232.3256309280496" 
        height="3246.9135802469136" viewBox="0 0 2232.3256309280496 3246.9135802469136">
			
			<g transform="scale(12.345679012345679) translate(10, 10)">
				<defs id="SvgjsDefs5534"></defs><g id="SvgjsG5535" featureKey="symbolGroupContainer" transform="matrix(1,0,0,1,0,0)" fill="#4483a5"><path xmlns="http://www.w3.org/2000/svg" fill-rule="evenodd" d="M5,65 L31.5,0 L58, 65 L31.5, 10 z M5,163 L31.5,243 L58,158 L31.5, 233 z"></path></g><g id="SvgjsG5536" featureKey="symbolFeature-0" transform="matrix(0.08974358974358974,0,0,0.08974358974358974,0.08974358974358974,90.08974358974359)" fill="#3d84a8"><g xmlns="http://www.w3.org/2000/svg"><title>background</title><rect x="-1" y="-1" width="702" height="702" style="fill: none;"></rect></g><g xmlns="http://www.w3.org/2000/svg"><title>Layer 1</title><g><g><path d="M222,158.3c-31,0.7-57.5,21-79.5,60.8c-23.1,44.8-34.5,94.6-34.3,149.4c0.4,6.6,1.1,7.2,2.2,1.9     c9.3-40.3,19-71.8,29.1-94.6c9.9-22.9,20.9-41.7,32.9-56.2c27.6-32.1,51.5-37.3,71.8-15.6c22.2,25.6,34,68.8,35.4,129.4     c-1.2,81.5-11.9,143.1-32.1,185c-25.3,51-51.3,68-77.7,50.8c-36-28.7-56-92.3-60-190.6c-1.4-3.4-2.7-0.9-3.7,7.5     c-1.9,10.2-3.2,21.4-4,33.3c-3,53.4,4.1,98.7,21.2,135.9c17.5,35.3,40.8,53.2,69.9,53.8c31.4-0.5,60-21,85.9-61.7     c25.8-42.5,42.4-94.3,49.7-155.6c2.7-65.2-6.1-120.7-26.3-166.5c-20.4-43.6-47.1-66-80-67.2"></path></g><g><path d="M452,134.1c-16.1-26.4-46.9-39.3-92.4-38.5c-50.3,2.4-99.2,17.4-146.6,45c-5.5,3.6-5.7,4.6-0.6,2.9     c39.6-12.1,71.7-19.5,96.4-22.1c24.8-2.9,46.5-2.8,65.1,0.4c41.6,7.9,58.1,26,49.4,54.4c-11.1,32-42.6,63.8-94.4,95.4     c-71.2,39.7-129.9,61.3-176.2,64.7c-56.9,3.6-84.5-10.4-82.8-41.9C77,248.8,122,199.7,205.1,147c2.2-2.9-0.6-2.7-8.3,0.6     c-9.8,3.5-20.1,7.9-30.9,13.2c-47.7,24.1-83.5,52.9-107.1,86.3c-21.8,32.8-25.7,62-11.7,87.4c16.1,26.9,48.2,41.4,96.4,43.5     c49.7,1.1,102.9-10.4,159.6-34.8c57.8-30.3,101.5-65.6,131-106c27.6-39.5,33.6-73.8,18.2-102.9"></path></g><g><path d="M588,321.2c14.8-27.2,10.6-60.3-12.9-99.3c-27.3-42.4-64.7-77.2-112.3-104.4c-5.9-3-6.8-2.7-2.8,0.9     c30.3,28.2,52.7,52.4,67.4,72.4c14.9,20.1,25.7,38.9,32.2,56.6c14,40,6.5,63.3-22.4,69.9c-33.3,6.4-76.5-5-129.8-34     c-69.9-41.8-118-81.9-144.2-120.2c-31.5-47.5-33.2-78.4-5.1-92.7c42.9-16.8,107.9-2.3,195.1,43.4c3.6,0.4,2.1-1.9-4.7-6.9     c-7.9-6.8-16.9-13.5-26.9-20.2c-44.7-29.3-87.5-45.8-128.3-49.6c-39.3-2.5-66.5,8.7-81.6,33.6c-15.3,27.4-11.8,62.5,10.5,105.2     c23.9,43.6,60.5,83.9,109.9,120.8c55.1,34.9,107.6,55.1,157.3,60.4c48,4.1,80.8-7.8,98.2-35.7"></path></g><g><path d="M494,532.5c31-0.7,57.5-21,79.5-60.8c23.1-44.8,34.5-94.6,34.3-149.4c-0.4-6.6-1.1-7.2-2.2-1.9     c-9.3,40.3-19,71.8-29.1,94.6c-9.9,22.9-20.9,41.7-32.9,56.2c-27.6,32.1-51.5,37.3-71.8,15.6c-22.2-25.6-34-68.8-35.4-129.4     c1.2-81.5,11.9-143.1,32.1-185c25.3-51,51.3-68,77.7-50.8c36,28.7,56,92.3,60,190.6c1.4,3.4,2.7,0.9,3.7-7.5     c1.9-10.2,3.2-21.4,4-33.3c3-53.4-4.1-98.7-21.2-135.9c-17.5-35.3-40.8-53.2-69.9-53.8c-31.4,0.5-60,21-85.9,61.7     c-25.8,42.5-42.4,94.3-49.7,155.6c-2.7,65.2,6.1,120.7,26.3,166.5c20.4,43.6,47.1,66,80,67.2"></path></g><g><path d="M128,369.6c-14.8,27.2-10.6,60.3,12.9,99.3c27.3,42.4,64.7,77.2,112.3,104.4c5.9,3,6.8,2.7,2.8-0.9     c-30.3-28.2-52.7-52.4-67.4-72.4c-14.9-20.1-25.7-38.9-32.2-56.6c-14-40-6.5-63.3,22.4-69.9c33.3-6.4,76.5,5,129.8,34     c69.9,41.8,118,81.9,144.2,120.2c31.5,47.5,33.2,78.4,5.1,92.7c-42.9,16.8-107.9,2.3-195.1-43.4c-3.6-0.4-2.1,1.9,4.7,6.9     c7.9,6.8,16.9,13.5,26.9,20.2c44.7,29.3,87.5,45.8,128.3,49.6c39.3,2.5,66.5-8.7,81.6-33.6c15.3-27.4,11.8-62.5-10.5-105.2     c-23.9-43.6-60.5-83.9-109.9-120.8c-55.1-34.9-107.6-55.1-157.3-60.4c-48-4.1-80.8,7.8-98.2,35.7"></path></g><g><path d="M264,556.7c16.1,26.4,46.9,39.3,92.4,38.5c50.3-2.4,99.2-17.4,146.6-45c5.5-3.6,5.7-4.6,0.6-2.9     c-39.6,12.1-71.7,19.5-96.4,22.1c-24.8,2.9-46.5,2.8-65.1-0.4c-41.6-7.9-58.1-26-49.4-54.4c11.1-32,42.6-63.8,94.4-95.4     c71.2-39.7,129.9-61.3,176.2-64.7c56.9-3.6,84.5,10.4,82.8,41.9c-6.9,45.5-51.9,94.6-135.1,147.3c-2.2,2.9,0.6,2.7,8.3-0.6     c9.8-3.5,20.1-7.9,30.9-13.2c47.7-24.1,83.5-52.9,107.1-86.3c21.8-32.8,25.7-62,11.7-87.4c-16.1-26.9-48.2-41.4-96.3-43.5     c-49.7-1.1-102.9,10.4-159.6,34.8c-57.8,30.3-101.5,65.6-131,106c-27.6,39.5-33.6,73.8-18.2,102.9"></path></g></g></g></g><g id="SvgjsG5537" featureKey="nameLeftFeature-0" transform="matrix(1,0,0,1,83,122)" fill="#3d84a8"><path d=""></path></g><g id="SvgjsG5538" featureKey="inlineSymbolFeature-0" transform="matrix(0.45,0,0,0.45,83.5,99.5)" fill="#3d84a8"><path xmlns="http://www.w3.org/2000/svg" d="M50,10L10,90h80L50,10z M50,24.909L72.546,70H42.36l3.333-6.667h16.064L50,39.814L31.575,76.667h44.304l3.333,6.666H20.788  L50,24.909z"></path></g><g id="SvgjsG5539" featureKey="nameRightFeature-0" transform="matrix(1.9007391227505699,0,0,1.9007391227505699,127.85955670761827,101.98521913108893)" fill="#3d84a8"><path d="M5.38 20 l-1.64 0 l-0.02 -5.72 q0 -0.72 -0.14 -1.21 t-0.54 -1.09 q-0.46 0.7 -0.62 1.22 t-0.16 1.34 l0 5.46 l-1.66 0 l0 -18.68 l2.54 0 q2.24 0 2.24 2.32 l0 2.88 q0 1.32 -0.26 2.1 t-1.04 1.9 q0.76 1.08 1.03 1.85 t0.27 2.03 l0 5.6 z M3.72 3.84 q0 -0.4 -0.15 -0.63 t-0.57 -0.23 l-0.74 0 l0 7.2 q0.06 -0.06 0.09 -0.12 t0.07 -0.1 q0.8 -1.1 1.05 -1.69 t0.25 -1.51 l0 -2.92 z M11.36 13 l0 4.7 q0 2.3 -2.24 2.3 l-0.3 0 q-1.2 0 -1.72 -0.61 t-0.52 -1.69 l0 -14.34 q0 -1.1 0.52 -1.7 t1.72 -0.6 l0.3 0 q2.24 0 2.24 2.3 l0 4.7 l-1.66 0 l0 -4.48 q0 -0.4 -0.16 -0.63 t-0.58 -0.23 t-0.57 0.23 t-0.15 0.63 l0 13.9 q0 0.4 0.15 0.63 t0.57 0.23 t0.58 -0.23 t0.16 -0.63 l0 -4.48 l1.66 0 z M12.56 1.3200000000000003 l0 18.68 l1.64 0 l0.02 -5.58 q0 -0.92 0.25 -1.51 t1.05 -1.69 l0.16 -0.22 l0 9 l1.66 0 l0 -18.68 l-1.66 0 l0 5.34 q0 0.96 -0.24 1.56 t-1.04 1.7 q-0.18 0.24 -0.2 0.26 l0 -8.86 l-1.64 0 z"></path></g>
			</g>
		</svg>
	